<?xml version="1.0" encoding="UTF-8" standalone="no"?>
<svg
   enable-background="new 0 0 512 512"
   height="512px"
   id="Layer_1"
   version="1.1"
   viewBox="0 0 512 512"
   width="512px"
   xml:space="preserve"
   sodipodi:docname="clear.svg"
   inkscape:version="1.2.2 (732a01da63, 2022-12-09)"
   xmlns:inkscape="http://www.inkscape.org/namespaces/inkscape"
   xmlns:sodipodi="http://sodipodi.sourceforge.net/DTD/sodipodi-0.dtd"
   xmlns="http://www.w3.org/2000/svg"
   xmlns:svg="http://www.w3.org/2000/svg"><defs
     id="defs9" /><sodipodi:namedview
     id="namedview7"
     pagecolor="#ffffff"
     bordercolor="#000000"
     borderopacity="0.25"
     inkscape:showpageshadow="2"
     inkscape:pageopacity="0.0"
     inkscape:pagecheckerboard="0"
     inkscape:deskcolor="#d1d1d1"
     showgrid="false"
     inkscape:zoom="1"
     inkscape:cx="299"
     inkscape:cy="222"
     inkscape:window-width="1920"
     inkscape:window-height="1009"
     inkscape:window-x="-8"
     inkscape:window-y="-8"
     inkscape:window-maximized="1"
     inkscape:current-layer="Layer_1" /><path
     d="M256,7C118.467,7,7,118.468,7,256.002C7,393.533,118.467,505,256,505s249-111.467,249-248.998  C505,118.468,393.533,7,256,7z M256,485.08c-126.31,0-229.08-102.771-229.08-229.078C26.92,129.692,129.69,26.92,256,26.92  c126.309,0,229.08,102.771,229.08,229.082C485.08,382.309,382.309,485.08,256,485.08z"
     fill="#425661"
     id="path2" /><polygon
     fill="#425661"
     points="368.545,157.073 354.461,142.988 255.863,241.587 157.733,143.456 143.648,157.54 241.78,255.672   143.648,353.809 157.733,367.893 255.863,269.75 354.461,368.361 368.545,354.275 269.947,255.672 "
     id="polygon4" /><path
     style="fill:#ff0000;stroke-width:0.617612"
     d="M 235.61882,503.88726 C 176.15397,498.76888 121.66051,473.34938 79.664637,431.13951 39.471267,390.74134 14.91963,339.0259 8.5395826,281.32207 c -1.0832199,-9.79709 -1.0832199,-40.84705 0,-50.64414 C 13.79582,183.13831 31.331209,139.72932 60.174584,102.85508 101.79385,49.647762 162.47715,16.08023 230.67793,8.5395826 c 9.79709,-1.0832199 40.84705,-1.0832199 50.64414,0 41.4388,4.5816974 78.42328,17.9326464 112.40531,40.5769484 61.94681,41.27894 101.44915,106.638479 109.73303,181.561399 1.08323,9.79709 1.08323,40.84705 0,50.64414 -8.5688,77.49991 -50.49533,144.59363 -116.06851,185.74088 -33.40114,20.95925 -71.66482,33.54301 -112.12518,36.87454 -9.13474,0.75217 -30.64237,0.72492 -39.6479,-0.0502 z m 46.32087,-19.97504 c 28.55492,-3.38824 55.10239,-11.51787 79.89348,-24.46578 63.61151,-33.22307 108.23589,-94.31386 120.18481,-164.53304 2.46319,-14.47516 3.06175,-22.08266 3.06175,-38.9134 0,-16.83074 -0.59856,-24.43824 -3.06175,-38.9134 C 465.80855,121.83002 390.16998,46.191456 294.9134,29.982015 280.43824,27.518833 272.83074,26.920268 256,26.920268 c -21.62686,0 -36.72861,1.810625 -56.45776,6.769002 C 118.62146,54.026479 54.026479,118.62146 33.68927,199.54224 28.726882,219.28735 26.909178,234.42335 26.909178,256 c 0,16.82288 0.594167,24.34722 3.072837,38.9134 16.208665,95.25202 91.812485,170.85714 187.104585,187.10778 7.64519,1.30377 16.10528,2.29993 25.94356,3.0548 6.41681,0.49234 31.19926,-0.24888 38.90953,-1.16376 z"
     id="path253" /><path
     style="fill:#ff0000;stroke-width:0.617612"
     d="m 151.00604,360.68517 -6.78173,-6.80283 49.09266,-49.09557 49.09266,-49.09558 -49.09622,-49.09913 -49.09622,-49.09913 6.79373,-6.79373 6.79373,-6.79373 49.09622,49.09915 49.09623,49.09914 49.25143,-49.24854 49.25142,-49.24853 6.80283,6.78173 6.80283,6.78174 -49.25763,49.26052 -49.25763,49.26051 49.25763,49.26052 49.25763,49.26052 -6.80331,6.78221 -6.80332,6.78223 -49.24853,-49.24854 -49.24853,-49.24852 -49.10707,49.10419 -49.10708,49.1042 z"
     id="path255" /><path
     style="fill:#ff0000;stroke-width:0.0193004"
     d="m 359.29554,482.22079 c 0.0159,-0.009 0.43281,-0.20328 0.92642,-0.4311 3.96022,-1.82777 7.86135,-3.75929 11.81182,-5.84823 10.21828,-5.40325 20.46701,-11.81738 30.08571,-18.82901 l 0.50791,-0.37025 0.34955,0.005 0.34955,0.005 -0.60656,0.44315 c -10.06298,7.35219 -20.7246,13.97507 -31.74768,19.7213 -3.3737,1.75867 -7.01253,3.54966 -10.3753,5.10659 l -0.46455,0.21508 -0.43291,-5.8e-4 c -0.25676,-3.5e-4 -0.42113,-0.007 -0.40396,-0.0175 z"
     id="path257" /><path
     style="fill:#ff0000;stroke-width:0.00390625"
     d="m 367.34766,456.15464 c 0,-8.9e-4 0.0277,-0.017 0.0615,-0.0358 0.0981,-0.0545 0.74344,-0.41704 0.8711,-0.48939 0.0639,-0.0362 0.19794,-0.11207 0.29784,-0.16855 1.98335,-1.12135 4.37877,-2.53008 6.35547,-3.73761 l 0.18555,-0.11335 10e-4,0.16066 c 8e-4,0.12536 -6e-5,0.16166 -0.004,0.16519 -0.009,0.008 -0.7219,0.43997 -1.28814,0.78013 -1.87802,1.12822 -3.7488,2.2165 -5.63612,3.27867 l -0.28722,0.16165 h -0.27856 c -0.15321,0 -0.27856,-7.3e-4 -0.27856,-0.002 z"
     id="path259" /></svg>
